<svg width="110" height="110" viewBox="0 0 110 110" fill="none" xmlns="http://www.w3.org/2000/svg">
<g clip-path="url(#clip0_1106_1852)">
<path d="M109.01 58.3234L109.006 58.3311C107.952 59.9464 107.726 61.9657 108.398 63.774C108.655 64.4644 108.779 65.1804 108.779 65.8913C108.779 67.5125 108.131 69.0996 106.922 70.2663L106.918 70.2702C105.531 71.6073 104.862 73.5234 105.112 75.433V75.4387C105.426 77.8343 104.29 80.1887 102.22 81.4343H102.218C100.567 82.4298 99.4846 84.149 99.3019 86.0689V86.0746C99.0724 88.4779 97.4436 90.5189 95.1506 91.2734L95.1468 91.2753C93.3141 91.8785 91.8769 93.3157 91.2731 95.1484V95.1522C90.5179 97.4458 88.4763 99.074 86.0731 99.3035H86.0673C84.1474 99.4862 82.4282 100.568 81.4333 102.22V102.221C80.1865 104.291 77.832 105.427 75.4359 105.114H75.4314C73.5218 104.863 71.6058 105.534 70.2686 106.92L70.2647 106.923C68.5872 108.662 66.0372 109.242 63.7724 108.4C63.0859 108.145 62.3679 108.018 61.6538 108.018C60.4884 108.018 59.3314 108.354 58.3295 109.007L58.3218 109.012C56.3025 110.331 53.6936 110.331 51.6743 109.012L51.6666 109.007C50.0513 107.953 48.032 107.728 46.2237 108.4C45.5333 108.657 44.8173 108.781 44.1064 108.781C42.4852 108.781 40.8981 108.132 39.7314 106.923L39.7275 106.92C38.3904 105.534 36.4743 104.863 34.5647 105.114H34.559C32.1634 105.427 29.809 104.292 28.5634 102.221V102.22C27.5679 100.568 25.8487 99.4862 23.9288 99.3035H23.9231C21.5199 99.074 19.4788 97.4452 18.7243 95.1522L18.7224 95.1484C18.1192 93.3157 16.682 91.8785 14.8493 91.2746H14.8455C12.5519 90.5195 10.9237 88.4779 10.6942 86.0746V86.0689C10.5115 84.149 9.42947 82.4298 7.77819 81.4349H7.77627C5.7064 80.1881 4.5705 77.8336 4.88396 75.4375V75.433C5.1346 73.5234 4.46345 71.6073 3.07819 70.2702L3.07434 70.2663C1.33524 68.5888 0.755755 66.0388 1.59806 63.774C1.85319 63.0875 1.97947 62.3695 1.97947 61.6554C1.97947 60.49 1.64358 59.333 0.99037 58.3311L0.985883 58.3234C-0.333348 56.3041 -0.333348 53.6952 0.985883 51.6759L0.99037 51.6682C2.04422 50.0529 2.26986 48.0336 1.59806 46.2253C1.34101 45.5349 1.21665 44.8189 1.21665 44.108C1.21665 42.4868 1.86537 40.8997 3.07434 39.733L3.07819 39.7291C4.46409 38.392 5.1346 36.4759 4.88396 34.5663V34.5605C4.5705 32.165 5.70575 29.8105 7.77627 28.565H7.77819C9.42947 27.5695 10.5115 25.8503 10.6942 23.9304V23.9246C10.9237 21.5214 12.5525 19.4804 14.8455 18.7259L14.8493 18.724C16.682 18.1208 18.1192 16.6836 18.7231 14.8509V14.8471C19.4782 12.5535 21.5199 10.9253 23.9231 10.6958H23.9288C25.8487 10.5131 27.5679 9.43106 28.5628 7.77978V7.77785C29.8096 5.70798 32.1641 4.57209 34.5602 4.88555H34.5647C36.4743 5.13619 38.3904 4.46503 39.7275 3.07978L39.7314 3.07593C41.409 1.33683 43.959 0.757342 46.2237 1.59965C46.9102 1.85478 47.6282 1.98106 48.3423 1.98106C49.5077 1.98106 50.6647 1.64516 51.6666 0.991957L51.6743 0.98747C53.6936 -0.331761 56.3025 -0.331761 58.3218 0.98747L58.3295 0.991957C59.9449 2.0458 61.9641 2.27144 63.7724 1.59965C64.4628 1.3426 65.1788 1.21824 65.8897 1.21824C67.5109 1.21824 69.0981 1.86696 70.2647 3.07593L70.2686 3.07978C71.6058 4.46567 73.5218 5.13619 75.4314 4.88555H75.4372C77.8327 4.57209 80.1872 5.70734 81.4327 7.77785V7.77978C82.4282 9.43106 84.1474 10.5131 86.0673 10.6958H86.0731C88.4763 10.9253 90.5173 12.5541 91.2718 14.8471L91.2737 14.8509C91.8769 16.6836 93.3141 18.1208 95.1468 18.7246H95.1506C97.4442 19.4798 99.0724 21.5214 99.3019 23.9246V23.9304C99.4846 25.8503 100.567 27.5695 102.218 28.5644H102.22C104.29 29.8112 105.426 32.1657 105.112 34.5618V34.5663C104.862 36.4759 105.533 38.392 106.918 39.7291L106.922 39.733C108.661 41.4105 109.24 43.9605 108.398 46.2253C108.143 46.9118 108.017 47.6298 108.017 48.3439C108.017 49.5093 108.353 50.6663 109.006 51.6682L109.01 51.6759C110.329 53.6952 110.329 56.3041 109.01 58.3234Z" fill="#5DAC08"/>
<path d="M55 107.372C54.3282 107.372 53.6763 107.178 53.1141 106.81L53.0725 106.784C51.6718 105.874 50.0327 105.392 48.3372 105.392C47.2975 105.392 46.2789 105.575 45.3103 105.935C44.9244 106.078 44.5205 106.151 44.109 106.151C43.1769 106.151 42.2718 105.767 41.6257 105.097L41.6052 105.076C39.9757 103.396 37.6949 102.433 35.3481 102.433C35.0161 102.433 34.6808 102.453 34.3513 102.491L34.2295 102.506C34.0744 102.526 33.9218 102.536 33.7725 102.536C32.5821 102.536 31.4564 101.906 30.834 100.89L30.8167 100.862C29.4128 98.5321 26.959 96.9731 24.2513 96.693L24.1917 96.6859C22.8154 96.5552 21.6519 95.6302 21.2231 94.3289L21.1693 94.1673L21.1635 94.1545C20.2718 91.6263 18.2212 89.6167 15.675 88.777L15.6289 88.7622C14.3737 88.3379 13.4654 87.2045 13.3186 85.8763L13.3128 85.818C13.0519 83.0814 11.4911 80.6007 9.13657 79.1827L9.10964 79.1667C7.95131 78.4597 7.31605 77.1289 7.49233 75.7776L7.51413 75.6V75.5879C7.80387 72.934 6.83272 70.2436 4.91541 68.3872L4.89554 68.3686C3.91285 67.4206 3.58592 65.9757 4.06413 64.6898C4.42695 63.7148 4.61028 62.6943 4.61028 61.6558C4.61028 59.9693 4.12439 58.3295 3.20515 56.9122L3.18913 56.8879C2.43977 55.7411 2.43913 54.2597 3.18785 53.1141L3.20195 53.0923C4.69682 50.7891 5.01862 47.8802 4.06349 45.3097C3.9199 44.9238 3.84682 44.5199 3.84682 44.1084C3.84682 43.1763 4.23144 42.2712 4.90131 41.625L4.91092 41.6161C6.8481 39.7398 7.81798 37.0244 7.50708 34.3507L7.49362 34.2353C7.31605 32.8776 7.95003 31.5436 9.10836 30.8334L9.12759 30.8218C11.4667 29.4129 13.0276 26.9545 13.3058 24.2443L13.3116 24.193C13.4423 22.8154 14.3673 21.6513 15.6693 21.2231L15.8622 21.159L15.8776 21.1513C18.3891 20.2539 20.3859 18.2077 21.2212 15.675L21.2385 15.6193C21.6616 14.3705 22.7943 13.4654 24.1225 13.3186L24.1814 13.3129C26.9173 13.052 29.3975 11.4911 30.8154 9.13657L30.8378 9.09875C31.4526 8.0917 32.5776 7.46285 33.7718 7.46285C33.9212 7.46285 34.0725 7.47247 34.2205 7.49234L34.3981 7.51413H34.4103C34.7205 7.54811 35.0353 7.56541 35.3468 7.56541C37.6936 7.56541 39.975 6.60195 41.6052 4.92183L41.6244 4.90195C42.2705 4.23208 43.1757 3.84811 44.1071 3.84811C44.518 3.84811 44.9225 3.92118 45.309 4.06477C46.284 4.42759 47.3045 4.61093 48.343 4.61093C50.0295 4.61093 51.6693 4.12503 53.0866 3.2058L53.1109 3.18977C53.6744 2.82182 54.327 2.62695 54.9987 2.62695C55.6705 2.62695 56.3225 2.82118 56.8846 3.18849L56.9109 3.20516C58.3231 4.12183 59.9661 4.60644 61.6616 4.60644C62.7013 4.60644 63.7199 4.42375 64.6885 4.06413C65.0744 3.92054 65.4782 3.84747 65.8898 3.84747C66.8218 3.84747 67.727 4.23144 68.3731 4.90195L68.3879 4.91734C70.0199 6.60067 72.302 7.56541 74.6494 7.56541C74.9821 7.56541 75.318 7.54618 75.6475 7.50772L75.7629 7.49426C75.9225 7.47375 76.077 7.46285 76.2263 7.46285C77.4161 7.46285 78.5423 8.09362 79.1648 9.10901L79.1776 9.13016C80.5853 11.4667 83.0423 13.0276 85.752 13.3064L85.809 13.3129C87.184 13.4436 88.3462 14.368 88.7744 15.6693L88.8391 15.8603L88.8449 15.8725C89.7404 18.3872 91.7872 20.3859 94.3231 21.2218L94.3706 21.2372C95.6244 21.6603 96.5321 22.793 96.6795 24.1218L96.6853 24.1802C96.9456 26.9167 98.5064 29.3981 100.862 30.8161L100.896 30.8359C102.049 31.5391 102.683 32.8686 102.506 34.2212L102.483 34.3987V34.4103C102.194 37.0603 103.163 39.7494 105.076 41.6052L105.098 41.6263C106.083 42.5776 106.412 44.0231 105.934 45.309C105.571 46.284 105.388 47.3045 105.388 48.343C105.388 50.0289 105.874 51.6686 106.792 53.0853L106.81 53.1135C107.548 54.243 107.558 55.7084 106.834 56.8468L106.808 56.8859L106.782 56.9282C105.297 59.2154 104.979 62.118 105.934 64.6891C106.078 65.075 106.151 65.4789 106.151 65.8904C106.151 66.8225 105.766 67.7276 105.096 68.3738L105.085 68.384C103.149 70.259 102.18 72.9744 102.49 75.6488L102.504 75.7641C102.681 77.1186 102.049 78.4513 100.894 79.1629L100.876 79.1731C98.5347 80.584 96.9712 83.0417 96.6911 85.7494L96.684 85.8135C96.5539 87.1859 95.6289 88.3475 94.3276 88.7757L94.1654 88.8295L94.1526 88.8353C91.625 89.727 89.6154 91.7782 88.7757 94.3231L88.7622 94.3654C88.3385 95.6225 87.2052 96.5321 85.8757 96.6795L85.8173 96.6853C83.0802 96.9462 80.6 98.5071 79.1814 100.862L79.1597 100.899C78.5443 101.906 77.4186 102.535 76.2257 102.535C76.0763 102.535 75.925 102.526 75.777 102.506L75.602 102.483H75.5872C75.2782 102.449 74.9641 102.432 74.6532 102.432C72.3064 102.432 70.0257 103.395 68.3955 105.073L68.3744 105.095C68.2911 105.181 68.2064 105.261 68.1225 105.331C67.4994 105.86 66.7071 106.15 65.8911 106.15C65.4802 106.15 65.0757 106.077 64.6891 105.933C63.7141 105.571 62.693 105.387 61.6552 105.387C59.9705 105.387 58.3314 105.872 56.9148 106.79L56.8955 106.802C56.3263 107.174 55.6712 107.371 54.9994 107.371L55 107.372Z" fill="#85D009"/>
<path d="M107.701 57.3975C107.69 57.4141 107.68 57.4302 107.669 57.4468L107.654 57.4705C106.337 59.5 106.053 62.0635 106.896 64.3327C107.083 64.8334 107.177 65.3577 107.177 65.8911C107.177 67.1 106.678 68.2744 105.809 69.1129L105.795 69.1263C104.085 70.7827 103.235 73.168 103.51 75.5308L103.524 75.6462C103.753 77.3987 102.93 79.1205 101.424 80.043L101.392 80.0616C99.3321 81.3026 97.9603 83.4648 97.7128 85.8558L97.7058 85.9225C97.5378 87.6923 96.3385 89.1949 94.65 89.7507L94.5404 89.7872L94.5346 89.7898C92.2821 90.5705 90.4994 92.3776 89.7513 94.6455L89.7398 94.6814C89.184 96.3314 87.7199 97.5084 85.9898 97.7L85.9167 97.7071C83.5013 97.9372 81.3128 99.3141 80.0616 101.392L80.0462 101.418C79.1244 102.928 77.4007 103.753 75.6449 103.524L75.5366 103.51H75.5308C73.1718 103.236 70.7891 104.083 69.1321 105.789L69.1128 105.809C69.0077 105.918 68.8981 106.021 68.784 106.117L48.1327 85.4661L47.418 81.5231L83.2744 35.6064L107.701 57.3975Z" fill="#5DAC08"/>
<path d="M48.132 85.4654L25.2147 62.5481L32.9609 54.8013L46.6756 68.5161L74.3198 29.2949L83.2743 35.6065L48.132 85.4654Z" fill="white"/>
</g>
<defs>
<clipPath id="clip0_1106_1852">
<rect width="110" height="110" fill="white"/>
</clipPath>
</defs>
</svg>
